<svg width="88" height="17" viewBox="0 0 88 17" fill="none" xmlns="http://www.w3.org/2000/svg">
<path d="M3.08413 7.28565V4.4523H0V16.7976H3.08413V10.7262L9.45801 6.88089L8.01875 4.4523L3.08413 7.28565Z" fill="black"/>
<path d="M18.2991 13.7617C16.6542 13.7617 15.215 12.3451 15.215 10.5236C15.215 8.70217 16.6542 7.28549 18.2991 7.28549C19.944 7.28549 21.3832 8.70217 21.3832 10.5236C21.5888 12.3451 20.1496 13.7617 18.2991 13.7617ZM18.2991 4.45213C15.0094 4.45213 12.1308 7.28549 12.1308 10.726C12.1308 14.1665 14.8037 16.9999 18.2991 16.9999C21.5888 16.9999 24.4674 14.1665 24.4674 10.726C24.4674 7.08311 21.7945 4.45213 18.2991 4.45213Z" fill="black"/>
<path d="M34.1306 13.7619C32.4857 13.7619 31.0464 12.3452 31.0464 10.5238C31.0464 8.70233 32.4857 7.28565 34.1306 7.28565C35.7754 7.28565 37.2147 8.70233 37.2147 10.5238C37.4203 12.3452 35.9811 13.7619 34.1306 13.7619ZM34.1306 4.4523C30.8408 4.4523 27.9623 7.28565 27.9623 10.7262C27.9623 14.1667 30.6352 17 34.1306 17C37.6259 17 40.2988 14.1667 40.2988 10.7262C40.2988 7.08327 37.6259 4.4523 34.1306 4.4523Z" fill="black"/>
<path d="M49.9626 13.762C48.3178 13.762 46.8785 12.3453 46.8785 10.5239C46.8785 8.70246 48.3178 7.28578 49.9626 7.28578C51.6075 7.28578 53.0468 8.70246 53.0468 10.5239C53.0468 12.3453 51.8131 13.762 49.9626 13.762ZM49.9626 4.45242C48.729 4.45242 47.7009 4.85719 46.8785 5.26195V0H44V10.5239C44 13.9644 46.6729 16.7978 50.1682 16.7978C53.458 16.7978 56.3365 13.9644 56.3365 10.5239C56.1309 7.0834 53.458 4.45242 49.9626 4.45242Z" fill="black"/>
<path d="M62.9166 9.30948C63.3278 7.8928 64.3558 7.28565 65.7951 7.28565C67.2344 7.28565 68.468 7.8928 68.6736 9.30948H62.9166ZM66.0007 4.4523C64.1502 4.4523 62.5054 5.05944 61.4773 6.27374C60.4493 7.48804 59.8324 8.90472 59.8324 10.7262C59.8324 12.3452 60.4493 13.9643 61.4773 15.1786C62.711 16.3929 64.3558 17 66.0007 17C67.8512 17 69.4961 16.3929 70.5241 15.381L70.7297 15.1786L68.6736 13.1548L68.468 13.3571C67.8512 13.9643 67.0287 14.1667 66.2063 14.1667C64.3558 14.1667 63.3278 12.9524 63.1222 12.1428H71.9634V11.9405C71.9634 11.5357 71.9634 11.1309 71.9634 10.5238C71.9634 6.88089 69.4961 4.4523 66.0007 4.4523Z" fill="black"/>
<path d="M78.9532 9.30948C79.3644 7.8928 80.3925 7.28565 81.8318 7.28565C83.271 7.28565 84.5047 7.8928 84.7103 9.30948H78.9532ZM82.0374 4.4523C80.1869 4.4523 78.542 5.05944 77.514 6.27374C76.4859 7.48804 75.8691 8.90472 75.8691 10.7262C75.8691 12.3452 76.4859 13.9643 77.514 15.1786C78.7476 16.3929 80.3925 17 82.0374 17C83.8878 17 85.5327 16.3929 86.5608 15.381L86.7664 15.1786L84.7103 13.1548L84.5047 13.3571C83.8878 13.9643 83.0654 14.1667 82.243 14.1667C80.3925 14.1667 79.3644 12.9524 79.1588 12.1428H88V11.9405C88 11.5357 88 11.1309 88 10.5238C88 6.88089 85.5327 4.4523 82.0374 4.4523Z" fill="black"/>
</svg>
