<svg width="97" height="97" viewBox="0 0 97 97" fill="none" xmlns="http://www.w3.org/2000/svg">
<rect y="75.6604" width="107" height="29" transform="rotate(-45 0 75.6604)" fill="#F6BAA7"/>
<path d="M32.8814 68.9532L29.5848 65.6567L32.822 62.4196L32.1587 61.7563L28.9216 64.9934L26.615 62.6868L30.6045 58.6973L29.9412 58.0341L25.2192 62.7561L32.1488 69.6858L32.8814 68.9532ZM38.9901 62.8445L34.2086 58.0631L33.4958 58.7758L38.2773 63.5573L38.9901 62.8445ZM32.2089 57.4889C32.595 57.479 32.9118 57.1622 32.9217 56.7761C32.9217 56.3802 32.6049 56.0634 32.2089 56.0634C31.8129 56.0634 31.4961 56.3802 31.4961 56.7761C31.506 57.1622 31.8228 57.479 32.2089 57.4889ZM38.2835 57.0966C38.1746 56.671 38.1845 56.2057 38.2934 55.7008C38.4023 55.1761 38.6201 54.7604 38.9468 54.4337C39.5308 53.8496 40.5208 53.2952 41.778 54.5525L44.5301 57.3045L45.2428 56.5918L42.3324 53.6813C41.0751 52.4241 39.709 52.3251 38.5211 53.513C37.7489 54.2852 37.4024 55.2058 37.4618 56.275L36.7293 55.5424L36.0165 56.2552L40.798 61.0366L41.5107 60.3239L38.2835 57.0966ZM47.6618 54.1728L42.8803 49.3914L42.1676 50.1041L46.949 54.8856L47.6618 54.1728ZM40.8806 48.8172C41.2667 48.8073 41.5835 48.4905 41.5934 48.1044C41.5934 47.7084 41.2766 47.3917 40.8806 47.3917C40.4847 47.3917 40.1679 47.7084 40.1679 48.1044C40.1778 48.4905 40.4946 48.8073 40.8806 48.8172ZM51.212 50.8602C51.806 50.2662 52.1623 49.6525 52.291 49.0288C52.4296 48.3952 52.2712 47.8606 51.8456 47.435C51.0239 46.6133 50.0439 46.9004 48.6777 47.732C48.5886 47.8012 48.2124 48.0388 48.0937 48.0982L47.8165 48.2566C47.5789 48.3952 47.4997 48.3952 47.2918 48.5041C46.9552 48.6229 46.6186 48.5635 46.3909 48.3358C45.9653 47.9101 46.094 47.2271 46.9156 46.4054C47.5096 45.8114 48.2421 45.3957 49.1133 45.1779L48.4104 44.475C47.6779 44.6334 46.9651 45.069 46.2424 45.7916C45.0248 47.0093 44.8268 48.217 45.6485 49.0387C46.4701 49.8603 47.3413 49.6624 48.7668 48.811C48.846 48.7516 48.9846 48.6724 49.1727 48.5635C49.3608 48.4348 49.4994 48.3556 49.5786 48.316C49.7271 48.2269 50.1033 48.0091 50.2616 47.9893C50.5784 47.9101 50.8457 47.9002 51.1031 48.1576C51.5783 48.6328 51.3704 49.4149 50.5487 50.2365C49.8162 50.9691 48.9648 51.4245 48.0046 51.6126L48.7371 52.3451C49.4004 52.2164 50.42 51.6522 51.212 50.8602ZM51.992 43.3882C51.8831 42.9625 51.893 42.4972 52.0019 41.9923C52.1108 41.4677 52.3285 41.0519 52.6552 40.7252C53.2393 40.1411 54.2293 39.5868 55.4865 40.844L58.2385 43.5961L58.9513 42.8833L56.0409 39.9728C54.7836 38.7156 53.4175 38.6166 52.2296 39.8045C51.4574 40.5767 51.1109 41.4974 51.1703 42.5665L48.2896 39.6857L47.5768 40.3985L54.5064 47.3282L55.2192 46.6154L51.992 43.3882ZM62.9542 39.118C63.6769 38.3953 64.0827 37.6925 64.1718 36.9896L63.5383 36.356C63.37 37.1183 63.0037 37.7816 62.4493 38.3359C61.301 39.4843 59.826 39.6328 58.7172 38.6824L62.6473 34.7523L62.4493 34.5543C61.3703 33.4753 59.331 32.7031 57.7273 34.3068C57.0145 35.0196 56.668 35.8413 56.6977 36.7817C56.7274 37.7024 57.0937 38.524 57.8164 39.2467C58.5489 39.9793 59.4003 40.3356 60.3704 40.296C61.3406 40.2564 62.2117 39.8605 62.9542 39.118ZM58.143 38.0884C57.7768 37.6628 57.6085 37.1579 57.6085 36.5837C57.6184 35.9997 57.856 35.4651 58.341 34.98C58.8459 34.4751 59.3706 34.2474 59.9249 34.3068C60.4793 34.3464 60.9545 34.5444 61.3406 34.8909L58.143 38.0884ZM66.0952 27.701C65.0656 27.5624 64.1549 27.8792 63.3629 28.6712C62.6601 29.374 62.3235 30.2056 62.3631 31.1361C62.4027 32.0667 62.769 32.8884 63.4718 33.5912C64.1648 34.2842 64.9864 34.6505 65.917 34.6901C66.8476 34.7297 67.6791 34.3931 68.382 33.6902C69.1739 32.8983 69.4907 31.9875 69.3521 30.958L70.1144 31.7202L70.8272 31.0074L63.8975 24.0778L63.1847 24.7906L66.0952 27.701ZM68.5107 30.1165C68.8473 31.0272 68.6295 32.1558 67.9068 32.8785C67.3821 33.4031 66.7585 33.6704 66.0556 33.6605C65.3527 33.6506 64.7291 33.3833 64.2044 32.8587C63.6797 32.334 63.4124 31.7103 63.4025 31.0074C63.3827 30.2947 63.65 29.671 64.1747 29.1463C64.8974 28.4237 66.0259 28.1861 66.9366 28.5425L68.5107 30.1165Z" fill="#5C5C5C"/>
</svg>
